<svg width="22px" height="20px" viewBox="0 0 22 20" version="1.1" xmlns="http://www.w3.org/2000/svg">
    <title>password</title>
    <g id="Page-1" stroke="none" stroke-width="1" fill="none" fill-rule="evenodd">
        <g transform="translate(-830.000000, -539.000000)">
            <g transform="translate(810.000000, 372.000000)">
                <rect id="Rectangle-2-Copy" fill="#F1F1F1" x="0" y="152" width="381" height="50" rx="25"></rect>
                <g transform="translate(23.000000, 167.000000)" fill="#CECDCD" fill-rule="nonzero">
                    <path d="M14.9103693,6.83155687 L13.0654397,6.83155687 C13.0654397,3.96872757 10.8035893,1.78249221 7.91602662,1.78249221 C5.02806163,1.78249221 2.76666091,3.96875045 2.76666091,6.83155687 L0.9220862,6.83155687 C0.9220862,3.39648182 4.05926174,2.23425885e-08 7.91602662,0 C11.7724365,0 14.9103693,3.3964818 14.9103693,6.83155687 L14.9103693,6.83155687 Z M16,9.75915791 C16,8.77486958 15.1742282,7.97671144 14.15552,7.97671144 L1.84459837,7.97671144 C0.826197771,7.97671144 0,8.77489244 0,9.75915791 L0,18.2185138 C0,19.2021162 0.826197748,20 1.84459837,20 L14.1557803,20 C15.1742282,20 16,19.2020705 16,18.2178279 L16,9.75915791 L16,9.75915791 Z M9.48140787,16.3729875 C9.48140787,17.1116324 8.86239256,17.7099652 8.09786443,17.7099652 L7.90137832,17.7099652 C7.13798607,17.7099652 6.5185685,17.1116324 6.51856848,16.3729875 L6.51856848,12.7484899 C6.51856848,12.0101879 7.13798607,11.4121294 7.90211191,11.4121294 L8.09857436,11.4121294 C8.86236891,11.4121294 9.48140787,12.0101193 9.48140787,12.7488328 L9.48140787,16.3729875 L9.48140787,16.3729875 Z" id="Shape"></path>
                </g>
            </g>
        </g>
    </g>
</svg>
