<?xml version="1.0" encoding="UTF-8"?>
<svg width="20px" height="20px" viewBox="0 0 20 20" version="1.1" xmlns="http://www.w3.org/2000/svg" xmlns:xlink="http://www.w3.org/1999/xlink">
    <!-- Generator: Sketch 53.2 (72643) - https://sketchapp.com -->
    <title>通知</title>
    <desc>Created with Sketch.</desc>
    <g id="Page-1" stroke="none" stroke-width="1" fill="none" fill-rule="evenodd">
        <g id="注册" transform="translate(-549.000000, -621.000000)" fill="#CECDCD">
            <g id="分组-5" transform="translate(549.000000, 621.000000)">
                <g id="分组-2">
                    <path d="M0.825714286,7.29521308 L2.16628571,7.29521308 L2.16628571,13.6166936 L0.825714286,13.6166936 L0.825714286,7.29521308 Z M6.74,11.2856477 C6.81885714,11.1671199 6.93714286,11.1276107 7.09485714,11.0881014 C7.25257143,11.0485922 7.48914286,11.0485922 7.80457143,11.0485922 L8.71142857,11.0485922 C9.38171429,11.0485922 9.85485714,10.9695737 10.1702857,10.7720274 C10.4068571,10.6534996 10.5645714,10.4164441 10.6828571,10.1398793 C10.8011429,9.86331455 10.88,9.54724053 10.88,9.15214799 C10.88,8.83607396 10.8405714,8.55950919 10.7222857,8.32245367 C10.604,8.08539815 10.4857143,7.84834263 10.2885714,7.72981487 C9.97314286,7.45325009 9.42114286,7.33472233 8.59314286,7.33472233 L5.32057143,7.33472233 L5.32057143,8.48049068 L8.31714286,8.48049068 C8.672,8.48049068 8.90857143,8.51999994 9.06628571,8.6385277 C9.26342857,8.75705546 9.38171429,8.99411098 9.38171429,9.27067575 C9.38171429,9.54724053 9.26342857,9.74478679 9.02685714,9.86331455 C8.86914286,9.94233306 8.63257143,9.98184231 8.27771429,9.98184231 L7.25257143,9.98184231 C6.81885714,9.98184231 6.50342857,10.0213516 6.30628571,10.0608608 C6.10914286,10.1003701 5.912,10.2188978 5.75428571,10.3769348 C5.39942857,10.7325181 5.20228571,11.2856477 5.24171429,11.9968142 L5.24171429,13.6562029 L10.6828571,13.6562029 L10.6828571,12.5499438 L6.58228571,12.5499438 L6.58228571,11.9177957 C6.58228571,11.6017217 6.62171429,11.3646662 6.74,11.2856477 Z M18.7262857,9.03362023 C18.7262857,8.67803695 18.6474286,8.36196292 18.4502857,8.08539815 C18.2531429,7.76932412 18.0165714,7.5322686 17.6617143,7.41374084 C17.504,7.37423158 17.3857143,7.33472233 17.2674286,7.33472233 C17.1491429,7.33472233 16.8731429,7.29521308 16.4788571,7.29521308 L13.5217143,7.29521308 L13.5217143,8.44098143 L16.2422857,8.44098143 C16.4788571,8.44098143 16.6365714,8.44098143 16.7154286,8.48049068 C16.7942857,8.48049068 16.8731429,8.51999994 16.952,8.59901844 C17.1491429,8.7175462 17.228,8.91509247 17.228,9.19165724 C17.228,9.42871277 17.1491429,9.62625903 16.9914286,9.74478679 C16.8731429,9.86331455 16.5971429,9.90282381 16.2028571,9.90282381 L14.0737143,9.90282381 L14.0737143,11.0090829 L16.2028571,11.0090829 C16.5182857,11.0090829 16.7548571,11.0485922 16.9125714,11.1276107 C17.1097143,11.2461384 17.228,11.4831939 17.228,11.799268 C17.228,12.0758327 17.1491429,12.273379 16.9914286,12.3919068 C16.8731429,12.5104345 16.5971429,12.5499438 16.2422857,12.5499438 L13.5217143,12.5499438 L13.5217143,13.6562029 L16.3211429,13.6562029 C16.7942857,13.6562029 17.1491429,13.6166936 17.3857143,13.5771844 C17.6222857,13.5376751 17.8588571,13.4586566 18.056,13.3006196 C18.5291429,13.0240548 18.7262857,12.5499438 18.7262857,11.957305 C18.7262857,11.3251569 18.4502857,10.8115366 17.8982857,10.4164441 C18.4502857,10.0608608 18.7262857,9.62625903 18.7262857,9.03362023 L18.7262857,9.03362023 Z" id="形状" stroke="#CECDCD" stroke-width="0.3" fill-rule="nonzero"></path>
                    <rect id="矩形" x="0" y="18" width="20" height="2"></rect>
                    <rect id="矩形-copy" x="0" y="0" width="20" height="2"></rect>
                </g>
            </g>
        </g>
    </g>
</svg>