<svg width="22px" height="20px" viewBox="0 0 22 20" version="1.1" xmlns="http://www.w3.org/2000/svg">
    <title>phone</title>
    <g id="Page-1" stroke="none" stroke-width="1" fill="none" fill-rule="evenodd">
        <g transform="translate(-829.000000, -463.000000)" fill="#CECDCD" fill-rule="nonzero">
            <g transform="translate(810.000000, 372.000000)">
                <g transform="translate(19.000000, 91.000000)">
                    <g transform="translate(4.000000, 0.000000)">
                        <path d="M12.2259302,0.539434524 L2.47468646,0.539434524 C1.56457036,0.539434524 0.849479167,1.27980135 0.849479167,2.22208638 L0.849479167,17.8370956 C0.849479167,18.7793807 1.56457038,19.5870536 2.53969476,19.5870536 L6.63521715,19.5870536 L8.84549907,19.5870536 L12.2259302,19.5870536 C13.1360463,19.5870536 13.9161458,18.8466867 13.9161458,17.8370956 L13.9161458,2.22208638 C13.9161458,1.27980135 13.2010546,0.539434524 12.2259302,0.539434524 Z M5.79010934,1.75094386 L9.04052394,1.75094386 C9.17054053,1.75094386 9.3005571,1.88555602 9.3005571,2.02016815 C9.3005571,2.15478029 9.17054051,2.28939244 9.04052394,2.28939244 L5.79010934,2.28939244 C5.66009275,2.28939244 5.53007618,2.15478029 5.53007618,2.02016815 C5.53007618,1.88555602 5.59508447,1.75094386 5.79010934,1.75094386 Z M7.35030835,18.2409321 C6.70022544,18.2409321 6.18015909,17.7024835 6.18015909,17.0294228 C6.18015909,16.356362 6.70022544,15.8179134 7.35030835,15.8179134 C8.00039126,15.8179134 8.5204576,16.356362 8.5204576,17.0294228 C8.5204576,17.7024835 8.00039126,18.2409321 7.35030835,18.2409321 Z" id="形状"></path>
                    </g>
                </g>
            </g>
        </g>
    </g>
</svg>
